<?xml version="1.0" encoding="utf-8"?>
<!-- Generator: Adobe Illustrator 24.0.2, SVG Export Plug-In . SVG Version: 6.00 Build 0)  -->
<svg version="1.1" id="Capa_1" xmlns="http://www.w3.org/2000/svg" xmlns:xlink="http://www.w3.org/1999/xlink" x="0px" y="0px"
	 viewBox="0 0 20 20" style="enable-background:new 0 0 20 20;" xml:space="preserve">
<style type="text/css">
	.st0{fill:#FFFFFF;}
</style>
<path class="st0" d="M18.8,1.2C18.6,1,18.5,1,18.3,1L6.7,2.3c-0.3,0-0.6,0.3-0.6,0.6v11.5c-0.6-0.3-1.2-0.5-1.9-0.5
	C2.4,13.9,1,15,1,16.4S2.4,19,4.2,19s3.2-1.2,3.2-2.6V6.7l10.3-1.1v7.5c-0.6-0.3-1.2-0.5-1.9-0.5c-1.8,0-3.2,1.2-3.2,2.6
	s1.4,2.6,3.2,2.6s3.2-1.2,3.2-2.6V1.6C19,1.5,18.9,1.3,18.8,1.2z"/>
<g>
	<path class="st0" d="M18,19.1c-0.3,0-0.6-0.1-0.8-0.3l-16-16c-0.4-0.4-0.4-1.2,0-1.6s1.2-0.4,1.6,0l16,16c0.4,0.4,0.4,1.2,0,1.6
		C18.6,19,18.3,19.1,18,19.1z"/>
</g>
</svg>
