<?xml version="1.0" encoding="utf-8"?>
<!-- Generator: Adobe Illustrator 24.0.2, SVG Export Plug-In . SVG Version: 6.00 Build 0)  -->
<svg version="1.1" id="Capa_1" xmlns="http://www.w3.org/2000/svg" xmlns:xlink="http://www.w3.org/1999/xlink" x="0px" y="0px"
	 viewBox="0 0 20 20" style="enable-background:new 0 0 20 20;" xml:space="preserve">
<style type="text/css">
	.st0{fill:#FFFFFF;}
</style>
<path class="st0" d="M13.1,9.1c0.5,0.3,0.7,1,0.3,1.6c-0.1,0.1-0.2,0.2-0.3,0.3L2.7,17.8c-0.5,0.3-1.2,0.2-1.6-0.3
	C1.1,17.3,1,17.1,1,16.9V3.1C1,2.5,1.5,2,2.1,2C2.3,2,2.6,2,2.7,2.2L13.1,9.1z M17.9,2.1c-0.6,0-1.1,0.5-1.1,1.1v13.5
	c0,0.6,0.5,1.1,1.1,1.1c0.6,0,1.1-0.5,1.1-1.1V3.3C19,2.6,18.5,2.1,17.9,2.1z"/>
</svg>
